<svg xmlns="http://www.w3.org/2000/svg" aria-hidden="true" style="width:0;height:0;position:absolute;overflow:hidden"><defs><symbol id="icon-tel" viewBox="0 0 32 32"><path d="m29.387 5.978-3.905-3.901a2.521 2.521 0 0 0-3.578 0l-4.206 4.198a2.529 2.529 0 0 0 0 3.586l3.285 3.289a14.853 14.853 0 0 1-3.168 4.667 14.896 14.896 0 0 1-4.664 3.175l-3.285-3.289a2.521 2.521 0 0 0-3.579 0l-4.209 4.198a2.529 2.529 0 0 0 0 3.586l3.901 3.901a4.39 4.39 0 0 0 3.087 1.279c.238 0 .469-.018.704-.059 4.855-.799 9.673-3.384 13.563-7.27 3.887-3.893 6.468-8.711 7.275-13.569a4.37 4.37 0 0 0-1.221-3.791zm-1.379 3.355c-.715 4.322-3.04 8.634-6.541 12.135s-7.81 5.826-12.133 6.541a1.724 1.724 0 0 1-1.496-.484l-3.832-3.831 4.063-4.066 4.426 4.432.792-.293a17.657 17.657 0 0 0 10.476-10.478l.293-.792-4.429-4.425 4.063-4.066 3.832 3.831c.396.396.579.953.488 1.496z"/></symbol><symbol id="icon-heart" viewBox="0 0 32 32"><path fill="#ff6b08" d="m16 30.144-2.24-2.218C5.44 20.639 0 15.728 0 9.708 0 4.797 3.84.995 8.8.995c2.72 0 5.44 1.267 7.2 3.327C17.76 2.263 20.48.995 23.2.995c4.96 0 8.8 3.802 8.8 8.713 0 6.02-5.44 10.931-13.76 18.218L16 30.144z" style="fill:var(--color1,#ff6b08)"/></symbol></defs></svg>